<svg width="171" height="32" viewBox="0 0 171 32" fill="none" xmlns="http://www.w3.org/2000/svg">
<path d="M10.9251 22.7778C9.78321 23.9088 9.77488 25.7515 10.9065 26.8928L13.9229 29.9352C15.0537 31.0757 16.8949 31.084 18.036 29.9538L29.9322 18.1702C31.0741 17.0392 31.0824 15.1965 29.9508 14.0552L18.0626 2.06483C16.9318 0.924295 15.0907 0.915976 13.9496 2.04624L10.9073 5.05968C9.76547 6.19072 9.75714 8.0334 10.8887 9.17471L15.6621 13.9891C16.7936 15.1304 16.7853 16.973 15.6435 18.1041L10.9251 22.7778Z" fill="#0A7B9E"/>
<path d="M9.36153 21.2027C8.22046 22.333 6.3793 22.3246 5.24849 21.1841L2.0492 17.9573C0.917616 16.816 0.925943 14.9733 2.0678 13.8423L5.25056 10.6897C6.39164 9.55942 8.2328 9.56774 9.36361 10.7083L12.5629 13.9351C13.6945 15.0764 13.6862 16.919 12.5443 18.0501L9.36153 21.2027Z" fill="#F4BF22"/>
<path d="M39.2727 21.8182V5.45459H46.9886C50.8826 5.45459 52.8295 7.03414 52.8295 10.1932C52.8295 13.3523 50.7424 14.9319 46.5682 14.9319H42.7841V21.8182H39.2727ZM49.1477 21.8182L44.4432 13.9773H48.3295L53.0795 21.8182H49.1477ZM42.7841 12.2046H46.7727C47.5909 12.2046 48.2197 12.0341 48.6591 11.6932C49.106 11.3447 49.3295 10.8485 49.3295 10.2046C49.3295 9.55307 49.1023 9.05307 48.6477 8.70459C48.2007 8.35611 47.5568 8.18186 46.7159 8.18186H42.7841V12.2046Z" fill="#0A7B9E"/>
<path d="M60.5568 22.1137C59.3522 22.1137 58.2689 21.8523 57.3068 21.3296C56.3522 20.8069 55.5947 20.0644 55.0341 19.1023C54.481 18.1326 54.2045 16.9887 54.2045 15.6705C54.2045 14.3599 54.4773 13.2235 55.0227 12.2614C55.5757 11.2993 56.3257 10.5569 57.2727 10.0341C58.2272 9.51141 59.3144 9.25004 60.5341 9.25004C61.2083 9.25004 61.8901 9.35232 62.5795 9.55686C63.2765 9.76141 63.9166 10.125 64.5 10.6478C65.0833 11.1629 65.553 11.8864 65.9091 12.8182C66.2651 13.7425 66.4432 14.9243 66.4432 16.3637H56.375V14.4319H63.4204L63.0682 15.0341C63.0076 14.216 62.856 13.5569 62.6136 13.0569C62.3712 12.5569 62.0644 12.1932 61.6932 11.966C61.3219 11.7387 60.9053 11.625 60.4432 11.625C59.8447 11.625 59.3447 11.7955 58.9432 12.1364C58.5416 12.4773 58.2386 12.9546 58.0341 13.5682C57.8371 14.1743 57.7386 14.8788 57.7386 15.6819C57.7386 16.894 57.9659 17.8523 58.4204 18.5569C58.8826 19.2614 59.5871 19.6137 60.5341 19.6137C61.1477 19.6137 61.6742 19.4546 62.1136 19.1364C62.5606 18.8182 62.9015 18.3334 63.1363 17.6819L66.2045 18.466C65.9166 19.3144 65.481 20.0076 64.8977 20.5455C64.3144 21.0834 63.6439 21.4811 62.8863 21.7387C62.1363 21.9887 61.3598 22.1137 60.5568 22.1137Z" fill="#0A7B9E"/>
<path d="M73.6477 26.5455C71.6704 26.5455 70.2007 26.2841 69.2386 25.7614C68.2765 25.2387 67.7954 24.4319 67.7954 23.341C67.7954 22.6667 67.9659 22.1213 68.3068 21.7046C68.6553 21.2879 69.1288 20.9811 69.7272 20.7841C69.4469 20.5872 69.2235 20.341 69.0568 20.0455C68.8977 19.75 68.8182 19.4243 68.8182 19.0682C68.8182 18.6061 68.9621 18.2008 69.25 17.8523C69.5379 17.5038 69.9507 17.2538 70.4886 17.1023C69.8901 16.7235 69.4204 16.2387 69.0795 15.6478C68.7462 15.0493 68.5795 14.3675 68.5795 13.6023C68.5795 12.7235 68.7954 11.9584 69.2272 11.3069C69.6666 10.6553 70.2803 10.1516 71.0682 9.7955C71.856 9.43186 72.7765 9.25004 73.8295 9.25004C74.8826 9.25004 75.803 9.43186 76.5909 9.7955C77.3788 10.1516 77.9924 10.6591 78.4318 11.3182C78.8712 11.9697 79.0909 12.7349 79.0909 13.6137C79.0909 14.4773 78.8712 15.2349 78.4318 15.8864C77.9924 16.5379 77.375 17.0455 76.5795 17.4091C75.7916 17.7652 74.8674 17.9432 73.8068 17.9432H72.9886C72.2386 17.9432 71.8636 18.144 71.8636 18.5455C71.8636 18.9319 72.2386 19.125 72.9886 19.125H75.4659C76.3144 19.125 77.0303 19.2273 77.6136 19.4319C78.1969 19.6364 78.6704 19.9129 79.0341 20.2614C79.4053 20.6023 79.6742 20.9963 79.8409 21.4432C80.0151 21.8902 80.1022 22.3599 80.1022 22.8523C80.1022 24.0947 79.6098 25.019 78.625 25.625C77.6401 26.2387 76.1288 26.5455 74.0909 26.5455H73.6477ZM73.7272 24.3864H74.1363C75.8257 24.3864 76.6704 23.8788 76.6704 22.8637C76.6704 22.4697 76.5227 22.1402 76.2272 21.875C75.9318 21.6175 75.3939 21.4887 74.6136 21.4887H73C72.5303 21.4887 72.106 21.5985 71.7272 21.8182C71.3485 22.0455 71.1591 22.4205 71.1591 22.9432C71.1591 23.4281 71.3674 23.7879 71.7841 24.0228C72.2007 24.2652 72.8485 24.3864 73.7272 24.3864ZM73.8295 15.8182C74.4886 15.8182 74.9962 15.625 75.3522 15.2387C75.7159 14.8523 75.8977 14.3107 75.8977 13.6137C75.8977 12.9167 75.7159 12.3713 75.3522 11.9773C74.9962 11.5834 74.4886 11.3864 73.8295 11.3864C73.178 11.3864 72.6704 11.5834 72.3068 11.9773C71.9432 12.3637 71.7613 12.9091 71.7613 13.6137C71.7613 14.3107 71.9432 14.8523 72.3068 15.2387C72.6704 15.625 73.178 15.8182 73.8295 15.8182ZM75.6477 11.0114V9.77277C75.6477 8.93944 75.8901 8.30307 76.375 7.86368C76.8598 7.41671 77.5644 7.19323 78.4886 7.19323H79.6591V9.68186H78.2954C78.0606 9.68186 77.9053 9.72353 77.8295 9.80686C77.7613 9.8902 77.7272 10.0569 77.7272 10.3069V11.0114H75.6477Z" fill="#0A7B9E"/>
<path d="M87.3409 22.5V9.10232H81.5568V6.13641H96.659V9.10232H90.8522V22.5H87.3409Z" fill="#F4BF22"/>
<path d="M101.92 22.7955C100.716 22.7955 99.6325 22.5341 98.6704 22.0114C97.7159 21.4887 96.9583 20.7463 96.3977 19.7841C95.8446 18.8144 95.5681 17.6705 95.5681 16.3523C95.5681 15.0417 95.8409 13.9053 96.3863 12.9432C96.9393 11.9811 97.6893 11.2387 98.6363 10.716C99.5909 10.1932 100.678 9.93186 101.898 9.93186C102.572 9.93186 103.254 10.0341 103.943 10.2387C104.64 10.4432 105.28 10.8069 105.864 11.3296C106.447 11.8447 106.917 12.5682 107.273 13.5C107.629 14.4243 107.807 15.6061 107.807 17.0455H97.7386V15.1137H104.784L104.432 15.716C104.371 14.8978 104.22 14.2387 103.977 13.7387C103.735 13.2387 103.428 12.875 103.057 12.6478C102.686 12.4205 102.269 12.3069 101.807 12.3069C101.208 12.3069 100.708 12.4773 100.307 12.8182C99.9052 13.1591 99.6022 13.6364 99.3977 14.25C99.2007 14.8561 99.1022 15.5607 99.1022 16.3637C99.1022 17.5758 99.3295 18.5341 99.784 19.2387C100.246 19.9432 100.951 20.2955 101.898 20.2955C102.511 20.2955 103.038 20.1364 103.477 19.8182C103.924 19.5 104.265 19.0152 104.5 18.3637L107.568 19.1478C107.28 19.9963 106.845 20.6894 106.261 21.2273C105.678 21.7652 105.008 22.1629 104.25 22.4205C103.5 22.6705 102.723 22.7955 101.92 22.7955Z" fill="#F4BF22"/>
<path d="M115.92 22.7955C114.633 22.7955 113.515 22.5341 112.568 22.0114C111.629 21.4887 110.905 20.7463 110.398 19.7841C109.89 18.822 109.636 17.6781 109.636 16.3523C109.636 15.0341 109.89 13.894 110.398 12.9319C110.905 11.9697 111.629 11.2311 112.568 10.716C113.508 10.1932 114.621 9.93186 115.909 9.93186C116.833 9.93186 117.693 10.0985 118.489 10.4319C119.284 10.7652 119.958 11.2614 120.511 11.9205C121.072 12.572 121.454 13.3826 121.659 14.3523L118.454 15.0341C118.288 14.1629 117.985 13.5114 117.545 13.0796C117.106 12.6402 116.553 12.4205 115.886 12.4205C114.97 12.4205 114.288 12.7841 113.841 13.5114C113.401 14.2387 113.182 15.2008 113.182 16.3978C113.182 17.5872 113.401 18.5379 113.841 19.25C114.28 19.9546 114.966 20.3069 115.898 20.3069C116.542 20.3069 117.083 20.1137 117.523 19.7273C117.97 19.3334 118.295 18.7349 118.5 17.9319L121.602 18.5114C121.451 19.2538 121.189 19.8978 120.818 20.4432C120.447 20.9811 120 21.4243 119.477 21.7728C118.962 22.1137 118.401 22.3675 117.795 22.5341C117.189 22.7084 116.564 22.7955 115.92 22.7955Z" fill="#F4BF22"/>
<path d="M123.864 22.5V5.45459H127.25V13.1023L127.057 12.6023C127.42 11.7614 127.943 11.1061 128.625 10.6364C129.314 10.1667 130.144 9.93186 131.114 9.93186C132.068 9.93186 132.848 10.1478 133.454 10.5796C134.061 11.0114 134.511 11.6099 134.807 12.375C135.102 13.1402 135.25 14.0228 135.25 15.0228V22.5H131.864V15.4205C131.864 14.4129 131.731 13.6743 131.466 13.2046C131.201 12.7273 130.701 12.4887 129.966 12.4887C129.079 12.4887 128.405 12.8258 127.943 13.5C127.481 14.1743 127.25 15.1857 127.25 16.5341V22.5H123.864Z" fill="#F4BF22"/>
<path d="M140.386 22.7955C139.689 22.7955 139.125 22.5796 138.693 22.1478C138.261 21.716 138.045 21.1516 138.045 20.4546C138.045 19.7576 138.261 19.197 138.693 18.7728C139.125 18.341 139.689 18.125 140.386 18.125C141.083 18.125 141.644 18.341 142.068 18.7728C142.5 19.197 142.716 19.7576 142.716 20.4546C142.716 21.1516 142.5 21.716 142.068 22.1478C141.644 22.5796 141.083 22.7955 140.386 22.7955Z" fill="#F4BF22"/>
<path d="M144.829 22.5V19.6023H147.091V9.03414H144.829V6.13641H152.864V9.03414H150.602V19.6023H152.864V22.5H144.829Z" fill="#F4BF22"/>
<path d="M155.477 22.5V6.13641H161.716C163.678 6.13641 165.28 6.45838 166.523 7.10232C167.773 7.73868 168.693 8.66292 169.284 9.87504C169.883 11.0872 170.182 12.5531 170.182 14.2728C170.182 16.0834 169.86 17.5985 169.216 18.8182C168.579 20.0379 167.629 20.9584 166.364 21.5796C165.098 22.1932 163.53 22.5 161.659 22.5H155.477ZM158.989 19.5341H161.284C164.761 19.5341 166.5 17.7955 166.5 14.3182C166.5 13.2197 166.314 12.2841 165.943 11.5114C165.579 10.7311 165.019 10.1364 164.261 9.72732C163.504 9.31065 162.534 9.10232 161.352 9.10232H158.989V19.5341Z" fill="#F4BF22"/>
</svg>
